<svg width="40" height="40" viewBox="0 0 40 40" fill="none" xmlns="http://www.w3.org/2000/svg">
<path d="M13.9344 1.31556C9.93774 2.70202 6.49106 5.33358 4.10058 8.82369C1.7101 12.3138 0.501831 16.4785 0.65324 20.7061C0.804649 24.9336 2.30776 29.0012 4.94179 32.3114C7.57581 35.6216 11.2019 37.9998 15.2875 39.0968C18.5997 39.9515 22.07 39.989 25.4 39.2062C28.4166 38.5286 31.2055 37.0792 33.4937 34.9999C35.8752 32.7698 37.6038 29.9327 38.4937 26.7937C39.4607 23.3801 39.6328 19.7904 38.9969 16.2999H20.3969V24.0156H31.1687C30.9534 25.2461 30.4921 26.4207 29.8123 27.4688C29.1325 28.5169 28.2483 29.4171 27.2125 30.1156C25.8973 30.986 24.4144 31.5715 22.8594 31.8343C21.2998 32.1244 19.7002 32.1244 18.1406 31.8343C16.5598 31.5079 15.0645 30.8554 13.75 29.9187C11.6379 28.4236 10.0521 26.2997 9.21873 23.8499C8.37151 21.3543 8.37151 18.6487 9.21873 16.1531C9.81194 14.4037 10.7926 12.811 12.0875 11.4937C13.5693 9.95852 15.4454 8.86117 17.5098 8.32205C19.5743 7.78292 21.7474 7.82284 23.7906 8.43743C25.3869 8.92719 26.8465 9.7833 28.0531 10.9374C29.2677 9.7291 30.4802 8.51764 31.6906 7.30306C32.3156 6.64993 32.9969 6.02806 33.6125 5.35931C31.7704 3.6453 29.6083 2.31151 27.25 1.43431C22.9553 -0.125099 18.2562 -0.167006 13.9344 1.31556Z" fill="white"/>
<path d="M13.9344 1.3161C18.2558 -0.167472 22.955 -0.126667 27.25 1.43173C29.6087 2.31488 31.7698 3.6551 33.6094 5.37548C32.9844 6.04423 32.325 6.66923 31.6875 7.31923C30.475 8.52964 29.2635 9.73589 28.0531 10.938C26.8465 9.78384 25.3869 8.92774 23.7906 8.43797C21.748 7.82123 19.575 7.779 17.51 8.31592C15.4451 8.85284 13.5678 9.94817 12.0844 11.4817C10.7895 12.799 9.80882 14.3918 9.21561 16.1411L2.73749 11.1255C5.05626 6.52723 9.07108 3.00993 13.9344 1.3161Z" fill="#E33629"/>
<path d="M1.01878 16.0938C1.36671 14.368 1.9448 12.6969 2.73753 11.125L9.21565 16.1531C8.36843 18.6488 8.36843 21.3543 9.21565 23.85C7.05732 25.5167 4.89794 27.1917 2.73753 28.875C0.753624 24.926 0.148567 20.4266 1.01878 16.0938Z" fill="#F8BD00"/>
<path d="M20.3969 16.2969H38.9969C39.6328 19.7873 39.4607 23.377 38.4938 26.7906C37.6039 29.9296 35.8753 32.7667 33.4938 34.9969C31.4031 33.3656 29.3031 31.7469 27.2125 30.1156C28.249 29.4165 29.1337 28.5153 29.8135 27.466C30.4933 26.4168 30.9543 25.2411 31.1688 24.0094H20.3969C20.3938 21.4406 20.3969 18.8687 20.3969 16.2969Z" fill="#587DBD"/>
<path d="M2.73438 28.8746C4.89479 27.2079 7.05417 25.5329 9.2125 23.8496C10.0475 26.3002 11.6356 28.4243 13.75 29.9184C15.0686 30.8508 16.5672 31.4979 18.15 31.8184C19.7095 32.1084 21.3092 32.1084 22.8687 31.8184C24.4238 31.5555 25.9067 30.97 27.2219 30.0996C29.3125 31.7309 31.4125 33.3496 33.5031 34.9809C31.2153 37.0613 28.4263 38.5117 25.4094 39.1902C22.0794 39.9731 18.6091 39.9355 15.2969 39.0809C12.6772 38.3814 10.2302 37.1483 8.10938 35.459C5.86477 33.6765 4.03136 31.4306 2.73438 28.8746Z" fill="#319F43"/>
</svg>
