<svg width="188" height="152" viewBox="0 0 188 152" fill="none" xmlns="http://www.w3.org/2000/svg">
<path d="M164.583 22.9167C167.833 26.1667 167.833 31.3333 164.583 34.5833L70.0833 129.083C69.3207 129.855 68.4123 130.468 67.411 130.887C66.4096 131.305 65.3352 131.52 64.25 131.52C63.1648 131.52 62.0904 131.305 61.089 130.887C60.0877 130.468 59.1794 129.855 58.4167 129.083L23.4167 94.0833C22.6447 93.3206 22.0317 92.4123 21.6134 91.411C21.1951 90.4096 20.9797 89.3352 20.9797 88.25C20.9797 87.1648 21.1951 86.0904 21.6134 85.089C22.0317 84.0877 22.6447 83.1794 23.4167 82.4167C24.1794 81.6447 25.0877 81.0317 26.089 80.6134C27.0904 80.1951 28.1648 79.9797 29.25 79.9797C30.3352 79.9797 31.4096 80.1951 32.411 80.6134C33.4123 81.0317 34.3206 81.6447 35.0833 82.4167L64.25 111.583L152.917 22.9167C153.679 22.1447 154.588 21.5317 155.589 21.1134C156.59 20.6951 157.665 20.4797 158.75 20.4797C159.835 20.4797 160.91 20.6951 161.911 21.1134C162.912 21.5317 163.821 22.1447 164.583 22.9167ZM147 5.25L64.25 88L41 64.75C34.5 58.25 23.9167 58.25 17.4167 64.75L5.75 76.4167C-0.75 82.9167 -0.75 93.5 5.75 100L52.4167 146.667C58.9167 153.167 69.5 153.167 76 146.667L182.25 40.5C188.75 34 188.75 23.4167 182.25 16.9167L170.583 5.25C164 -1.25 153.5 -1.25 147 5.25Z" fill="#08299B"/>
</svg>
